<svg width="125" height="30" viewBox="0 0 125 30" fill="none" xmlns="http://www.w3.org/2000/svg">
<path d="M18.94 21.08C18.94 22.76 18.5267 24.2267 17.7 25.48C16.8733 26.7333 15.6733 27.7067 14.1 28.4C12.5533 29.0667 10.66 29.4 8.42 29.4C7.43333 29.4 6.46 29.3333 5.5 29.2C4.56667 29.0667 3.66 28.88 2.78 28.64C1.92667 28.3733 1.11333 28.0533 0.34 27.68V22.04C1.7 22.6267 3.1 23.1733 4.54 23.68C6.00667 24.16 7.46 24.4 8.9 24.4C9.88667 24.4 10.6733 24.2667 11.26 24C11.8733 23.7333 12.3133 23.3733 12.58 22.92C12.8733 22.4667 13.02 21.9467 13.02 21.36C13.02 20.64 12.7667 20.0267 12.26 19.52C11.78 19.0133 11.1267 18.5467 10.3 18.12C9.47333 17.6667 8.52667 17.1867 7.46 16.68C6.79333 16.36 6.07333 15.9867 5.3 15.56C4.52667 15.1067 3.78 14.56 3.06 13.92C2.36667 13.2533 1.79333 12.4533 1.34 11.52C0.886667 10.5867 0.66 9.46667 0.66 8.16C0.66 6.45333 1.04667 5 1.82 3.8C2.62 2.57333 3.74 1.64 5.18 0.999998C6.64667 0.359998 8.36667 0.0399985 10.34 0.0399985C11.8333 0.0399985 13.2467 0.213332 14.58 0.559999C15.94 0.906666 17.3533 1.4 18.82 2.04L16.86 6.76C15.5533 6.22667 14.38 5.81333 13.34 5.52C12.3 5.22667 11.2333 5.08 10.14 5.08C9.39333 5.08 8.75333 5.2 8.22 5.44C7.68667 5.68 7.27333 6.01333 6.98 6.44C6.71333 6.86667 6.58 7.37333 6.58 7.96C6.58 8.62667 6.78 9.2 7.18 9.68C7.58 10.1333 8.18 10.5733 8.98 11C9.78 11.4267 10.78 11.9333 11.98 12.52C13.4467 13.2133 14.6867 13.9333 15.7 14.68C16.74 15.4267 17.54 16.3067 18.1 17.32C18.66 18.3333 18.94 19.5867 18.94 21.08ZM35.1313 29H29.0913V5.48H21.3313V0.439998H42.8913V5.48H35.1313V29ZM61.9628 29L59.8828 22.2H49.4828L47.4028 29H40.8828L50.9628 0.32H58.3628L68.4828 29H61.9628ZM56.3628 10.48C56.2295 10.0267 56.0561 9.45333 55.8428 8.76C55.6295 8.06667 55.4161 7.36 55.2028 6.64C54.9895 5.92 54.8161 5.29333 54.6828 4.76C54.5495 5.29333 54.3628 5.96 54.1228 6.76C53.9095 7.53333 53.6961 8.28 53.4828 9C53.2961 9.69333 53.1495 10.1867 53.0428 10.48L51.0028 17.12H58.4428L56.3628 10.48ZM88.54 29H72.1V0.439998H88.54V5.4H78.14V11.68H87.82V16.64H78.14V24H88.54V29ZM106.563 29L99.6828 6.6H99.5228C99.5495 7.13333 99.5895 7.93333 99.6428 9C99.6961 10.0667 99.7495 11.2133 99.8028 12.44C99.8561 13.64 99.8828 14.7333 99.8828 15.72V29H94.4828V0.439998H102.723L109.483 22.28H109.603L116.763 0.439998H125.003V29H119.363V15.48C119.363 14.5733 119.376 13.5333 119.403 12.36C119.456 11.1867 119.496 10.08 119.523 9.04C119.576 7.97333 119.616 7.17333 119.643 6.64H119.483L112.123 29H106.563Z" fill="white"/>
</svg>
